<svg xmlns="http://www.w3.org/2000/svg" width="960" height="640" viewBox="0 0 960 640">
  <defs>
    <linearGradient id="g" x1="0" x2="1" y1="0" y2="1">
      <stop offset="0" stop-color="#FAF8F4"/>
      <stop offset="1" stop-color="#EAE6DE"/>
    </linearGradient>
    <linearGradient id="gold" x1="0" x2="1">
      <stop offset="0" stop-color="#B8860B"/>
      <stop offset="1" stop-color="#D4A017"/>
    </linearGradient>
    <filter id="s" x="-20%" y="-20%" width="140%" height="140%">
      <feDropShadow dx="0" dy="18" stdDeviation="28" flood-color="#13110E" flood-opacity=".16"/>
    </filter>
  </defs>
  <rect width="960" height="640" fill="url(#g)"/>
  <circle cx="820" cy="80" r="190" fill="#B8860B" opacity=".08"/>
  <circle cx="120" cy="560" r="220" fill="#B8860B" opacity=".06"/>
  <g filter="url(#s)">
    <rect x="115" y="86" width="730" height="468" rx="22" fill="#FFFFFF" stroke="#E8E4DA"/>
    <rect x="115" y="86" width="730" height="64" rx="22" fill="#13110E"/>
    <circle cx="154" cy="118" r="7" fill="#B8860B"/>
    <circle cx="180" cy="118" r="7" fill="#D4A017" opacity=".7"/>
    <circle cx="206" cy="118" r="7" fill="#FAF8F4" opacity=".45"/>
    <text x="244" y="124" font-family="Arial" font-size="15" fill="#EDE9E0" opacity=".8">Sistema operativo empresarial</text>
    <rect x="150" y="186" width="210" height="126" rx="14" fill="#FAF8F4" stroke="#E8E4DA"/>
    <rect x="390" y="186" width="420" height="126" rx="14" fill="#FAF8F4" stroke="#E8E4DA"/>
    <rect x="150" y="342" width="660" height="164" rx="14" fill="#FAF8F4" stroke="#E8E4DA"/>
    <text x="174" y="220" font-family="Arial" font-weight="700" font-size="14" fill="#7A7570">AUTONOMÍA</text>
    <text x="174" y="272" font-family="Georgia" font-size="54" fill="#B8860B">78%</text>
    <text x="414" y="220" font-family="Arial" font-weight="700" font-size="14" fill="#7A7570">PROCESOS IMPLANTADOS</text>
    <rect x="414" y="248" width="340" height="12" rx="6" fill="#EAE6DE"/>
    <rect x="414" y="248" width="305" height="12" rx="6" fill="url(#gold)"/>
    <rect x="414" y="282" width="340" height="12" rx="6" fill="#EAE6DE"/>
    <rect x="414" y="282" width="266" height="12" rx="6" fill="url(#gold)" opacity=".8"/>
    <text x="174" y="380" font-family="Arial" font-weight="700" font-size="14" fill="#7A7570">MAPA DE CRECIMIENTO</text>
    <polyline points="190,462 290,430 390,448 490,390 590,410 710,372 770,348" fill="none" stroke="#B8860B" stroke-width="6" stroke-linecap="round" stroke-linejoin="round"/>
    <g fill="#13110E">
      <circle cx="190" cy="462" r="8"/><circle cx="290" cy="430" r="8"/><circle cx="390" cy="448" r="8"/><circle cx="490" cy="390" r="8"/><circle cx="590" cy="410" r="8"/><circle cx="710" cy="372" r="8"/><circle cx="770" cy="348" r="8"/>
    </g>
  </g>
</svg>